<?xml version="1.0" standalone="no"?>
<svg viewBox="0 0 200 200" xmlns="http://www.w3.org/2000/svg">
  <path fill="#FF0066" d="M39.8,-69.6C52.1,-61.9,63,-52.3,72.4,-40.3C81.9,-28.4,89.9,-14.2,89.9,0C89.9,14.2,81.8,28.4,72.7,40.8C63.5,53.1,53.1,63.6,40.8,70.6C28.5,77.5,14.3,80.9,-1.1,82.8C-16.4,84.6,-32.8,85,-44.5,77.6C-56.1,70.3,-63.1,55.4,-68.1,41.1C-73.2,26.9,-76.4,13.5,-78.7,-1.3C-81,-16.2,-82.5,-32.3,-76.7,-45.2C-70.8,-58,-57.7,-67.6,-43.7,-74.3C-29.7,-81,-14.8,-84.9,-0.5,-84C13.8,-83,27.5,-77.2,39.8,-69.6Z" transform="translate(100 100)" />
</svg>
